<svg xmlns="http://www.w3.org/2000/svg" viewBox="0 0 32 32" width="32" height="32">
  <defs>
    <linearGradient id="treasureGradient" x1="0%" y1="0%" x2="100%" y2="100%">
      <stop offset="0%" style="stop-color:#FFD700;stop-opacity:1" />
      <stop offset="50%" style="stop-color:#FFA500;stop-opacity:1" />
      <stop offset="100%" style="stop-color:#FF8C00;stop-opacity:1" />
    </linearGradient>
    <linearGradient id="chestGradient" x1="0%" y1="0%" x2="100%" y2="100%">
      <stop offset="0%" style="stop-color:#8B4513;stop-opacity:1" />
      <stop offset="50%" style="stop-color:#A0522D;stop-opacity:1" />
      <stop offset="100%" style="stop-color:#CD853F;stop-opacity:1" />
    </linearGradient>
  </defs>
  
  <!-- Background circle -->
  <circle cx="16" cy="16" r="15" fill="#1a1a2e" stroke="#16213e" stroke-width="2"/>
  
  <!-- Treasure chest base -->
  <rect x="6" y="18" width="20" height="10" rx="2" fill="url(#chestGradient)" stroke="#654321" stroke-width="0.5"/>
  
  <!-- Treasure chest lid -->
  <ellipse cx="16" cy="18" rx="10" ry="3" fill="url(#chestGradient)" stroke="#654321" stroke-width="0.5"/>
  
  <!-- Chest lock -->
  <rect x="14.5" y="16" width="3" height="4" rx="0.5" fill="#FFD700" stroke="#B8860B" stroke-width="0.3"/>
  <circle cx="16" cy="17.5" r="0.8" fill="#B8860B"/>
  
  <!-- Treasure coins/gems spilling out -->
  <circle cx="12" cy="14" r="1.5" fill="url(#treasureGradient)" stroke="#B8860B" stroke-width="0.3"/>
  <circle cx="20" cy="15" r="1.2" fill="url(#treasureGradient)" stroke="#B8860B" stroke-width="0.3"/>
  <circle cx="16" cy="12" r="1.8" fill="url(#treasureGradient)" stroke="#B8860B" stroke-width="0.3"/>
  
  <!-- Sparkles/magic effect -->
  <g fill="#FFD700" opacity="0.8">
    <polygon points="10,8 10.5,9.5 12,10 10.5,10.5 10,12 9.5,10.5 8,10 9.5,9.5" />
    <polygon points="22,9 22.3,10 23,10.3 22.3,10.6 22,11.6 21.7,10.6 21,10.3 21.7,10" />
    <polygon points="24,20 24.4,21.2 25.6,21.6 24.4,22 24,23.2 23.6,22 22.4,21.6 23.6,21.2" />
  </g>
  
  <!-- Compass needle pointing to treasure -->
  <g transform="translate(8,6)">
    <circle cx="0" cy="0" r="3" fill="none" stroke="#FFD700" stroke-width="0.8" opacity="0.6"/>
    <polygon points="0,-2 0.5,0 0,2 -0.5,0" fill="#FF4444" opacity="0.8"/>
  </g>
</svg>
